<svg width="180" height="180" viewBox="0 0 180 180" fill="none" xmlns="http://www.w3.org/2000/svg">
<path fill-rule="evenodd" clip-rule="evenodd" d="M35.6265 56.3891V62.9689H18.6576C13.8093 62.9689 10 66.7782 10 71.2802V84.0934C10 86.5175 11.7315 88.249 14.1556 88.249C31.1245 88.249 31.8171 109.72 14.1556 109.72C11.7315 109.72 10 111.451 10 113.875V126.689C10 131.191 13.8093 135 18.6576 135H31.1245C33.5486 135 35.6265 133.268 35.6265 130.844C35.6265 113.875 56.751 113.529 56.751 130.844C56.751 133.268 58.4825 135 60.9066 135H73.7198C78.5681 135 82.3774 131.191 82.3774 126.689V109.72H88.6109C102.463 109.72 102.463 88.249 88.6109 88.249H82.3774V71.2802C82.3774 66.7782 78.5681 62.9689 73.7198 62.9689H56.751V56.3891C56.751 42.537 35.6265 42.537 35.6265 56.3891Z" fill="#F58246"/>
<path d="M49.5 91C51.433 91 53 89.433 53 87.5C53 85.567 51.433 84 49.5 84C47.567 84 46 85.567 46 87.5C46 89.433 47.567 91 49.5 91Z" fill="white"/>
<path d="M61.5 87.4494C61.5014 85.3098 60.9594 83.206 59.9265 81.3412C58.8935 79.4764 57.4045 77.9137 55.6032 76.804C53.802 75.6943 51.7494 75.0752 49.6438 75.0064C47.5381 74.9377 45.4506 75.4216 43.5829 76.4114C41.7152 77.4012 40.1304 78.8635 38.9816 80.657C37.8328 82.4506 37.1588 84.5147 37.0248 86.65C36.8908 88.7852 37.3013 90.9196 38.2166 92.8467C39.1319 94.7738 40.5211 96.4286 42.25 97.6513V107H56.25V101.668H61.5V94.5587L65 92.7814L61.5 87.4494ZM55.3752 87.5386C55.3729 88.3284 55.2217 89.1106 54.9297 89.8427L56.5076 90.7679L55.6326 92.3071L54.0395 91.373C53.521 92.0398 52.8732 92.5914 52.1363 92.9936L52.7658 94.7503L51.1213 95.3581L50.5012 93.6276C49.6761 93.8031 48.8242 93.8031 47.9991 93.6276L47.379 95.3581L45.7345 94.7503L46.3641 92.9935C45.6271 92.5913 44.9793 92.0397 44.4608 91.373L42.8677 92.3071L41.9927 90.7679L43.5706 89.8427C43.2787 89.1106 43.1275 88.3284 43.1252 87.5386C43.1252 87.4732 43.1423 87.4125 43.1442 87.3475L41.3429 87.0249L41.6467 85.2745L43.4591 85.5992C43.7196 84.7912 44.1414 84.0465 44.6983 83.4117L43.5179 81.9831L44.8584 80.8406L46.0351 82.2649C46.7484 81.8179 47.5451 81.526 48.3751 81.4076V79.5406H50.1251V81.4075C50.955 81.5259 51.7517 81.8179 52.465 82.2648L53.6417 80.8405L54.9822 81.983L53.8018 83.4117C54.3587 84.0464 54.7806 84.7911 55.0411 85.5991L56.8536 85.2745L57.1575 87.0249L55.3563 87.3474C55.3582 87.4124 55.3752 87.4732 55.3752 87.5386Z" fill="white"/>
<path fill-rule="evenodd" clip-rule="evenodd" d="M106.153 56.3891V62.9689H89.1272C88.0848 62.9689 87.0424 62.9689 86 63.3152C87.3899 65.7393 88.4323 68.5097 88.4323 71.2802V81.6693C110.67 82.0156 110.67 115.953 88.4323 116.3V126.689C88.4323 129.459 87.3899 132.23 86 134.307C87.0424 135 88.0848 135 89.1272 135H101.983C104.416 135 106.153 133.268 106.153 130.844C106.153 113.875 127.348 113.529 127.348 130.844C127.348 133.268 129.433 135 131.866 135H144.722C149.239 135 153.061 131.191 153.061 126.689V109.72H159.315C173.562 109.72 173.562 88.249 159.315 88.249H153.061V71.2802C153.061 66.7782 149.239 62.9689 144.722 62.9689H127.348V56.3891C127.348 42.537 106.153 42.537 106.153 56.3891Z" fill="#F58246"/>
<path fill-rule="evenodd" clip-rule="evenodd" d="M125.694 97.1447L113 93.0124V86.3137C113 85.959 113.243 85.6716 113.543 85.6716H120.059V81.6421C120.059 81.2874 120.302 81 120.602 81H130.551C130.851 81 131.094 81.2874 131.094 81.6421V85.6713H137.5C137.8 85.6713 138.043 85.9587 138.043 86.3134V93.1244L125.694 97.1447ZM123.915 94.5875H127.232V92.6494H123.915V94.5875ZM129.399 83.0237H121.772V85.7024H129.399V83.0237H129.399ZM125.661 98.488L125.694 98.4774L125.728 98.488L125.733 98.4648L138.043 94.4571V104.358C138.043 104.712 137.8 105 137.5 105H113.543C113.243 105 113 104.712 113 104.358V94.3445L125.655 98.4645L125.661 98.488Z" fill="white"/>
</svg>
